<?xml version="1.0" encoding="UTF-8" standalone="no"?>
<!-- Created with Inkscape (http://www.inkscape.org/) -->

<svg
   xmlns:dc="http://purl.org/dc/elements/1.1/"
   xmlns:cc="http://creativecommons.org/ns#"
   xmlns:rdf="http://www.w3.org/1999/02/22-rdf-syntax-ns#"
   xmlns:svg="http://www.w3.org/2000/svg"
   xmlns="http://www.w3.org/2000/svg"
   xmlns:sodipodi="http://sodipodi.sourceforge.net/DTD/sodipodi-0.dtd"
   xmlns:inkscape="http://www.inkscape.org/namespaces/inkscape"
   width="231.03473mm"
   height="77.961266mm"
   viewBox="0 0 231.03473 77.961266"
   version="1.1"
   id="svg3790"
   inkscape:version="0.92.2 (5c3e80d, 2017-08-06)"
   sodipodi:docname="logo.svg">
  <defs
     id="defs3784" />
  <sodipodi:namedview
     id="base"
     pagecolor="#ffffff"
     bordercolor="#666666"
     borderopacity="1.0"
     inkscape:pageopacity="0.0"
     inkscape:pageshadow="2"
     inkscape:zoom="0.98994949"
     inkscape:cx="415.89102"
     inkscape:cy="108.6723"
     inkscape:document-units="mm"
     inkscape:current-layer="layer1"
     showgrid="false"
     showborder="false"
     inkscape:window-width="1824"
     inkscape:window-height="876"
     inkscape:window-x="0"
     inkscape:window-y="31"
     inkscape:window-maximized="1"
     fit-margin-top="0"
     fit-margin-left="0"
     fit-margin-right="0"
     fit-margin-bottom="0" />
  <metadata
     id="metadata3787">
    <rdf:RDF>
      <cc:Work
         rdf:about="">
        <dc:format>image/svg+xml</dc:format>
        <dc:type
           rdf:resource="http://purl.org/dc/dcmitype/StillImage" />
        <dc:title></dc:title>
      </cc:Work>
    </rdf:RDF>
  </metadata>
  <g
     inkscape:label="Layer 1"
     inkscape:groupmode="layer"
     id="layer1"
     transform="translate(-4.9792458,-104.59903)">
    <path
       style="fill:#000000;stroke-width:0.15151393"
       d="m 26.740403,182.46793 c -0.450517,-0.0777 -1.228434,-0.258 -1.728703,-0.40079 -1.00228,-0.28607 -3.682403,-1.47274 -3.799478,-1.68228 -0.04068,-0.0728 0.268772,-0.32387 0.687674,-0.55789 1.037786,-0.57976 1.588143,-1.01141 3.930927,-3.083 2.49781,-2.20867 3.661428,-2.87406 5.23078,-2.99114 0.932601,-0.0696 1.278664,-0.0189 2.188236,0.32023 0.594241,0.22157 1.102928,0.3784 1.130414,0.34851 0.09523,-0.10354 -1.205787,-0.7636 -1.922737,-0.97545 -1.443995,-0.42668 -3.067839,-0.17384 -4.77161,0.74295 -0.485116,0.26104 -0.974977,0.47462 -1.088582,0.47462 -0.390084,0 -3.216432,-1.29383 -4.584053,-2.09848 -8.35021,-4.91286 -14.3249546,-13.49787 -16.2841036,-23.39833 -1.014032,-5.12437 -0.999135,-10.76092 0.04128,-15.61681 l 0.324359,-1.51388 0.09106,2.47001 c 0.111829,3.0332 0.30511,4.63749 0.844752,7.01163 2.107322,9.2711 8.1236576,15.62513 17.5792616,18.56598 1.921525,0.59762 1.866452,0.46547 -0.135473,-0.32508 -9.205219,-3.63509 -15.1288366,-10.71823 -16.8706446,-20.173 -0.882378,-4.78967 -0.592953,-10.27813 0.812466,-15.40707 2.1056506,-7.68436 5.9264766,-13.19561 11.6522536,-16.80745 4.091476,-2.58092 8.849173,-3.48812 11.402929,-2.17432 l 0.69799,0.35909 -1.502642,0.20751 c -3.020151,0.41705 -5.016677,1.06834 -7.573048,2.4704 -4.526424,2.48254 -8.89241,7.22515 -11.056271,12.01003 -1.127645,2.49352 -2.00082,5.65755 -2.5067006,9.08323 -0.34269,2.32063 -0.34131,6.97817 0.0027,9.2426 0.346008,2.27734 1.2922876,5.97468 1.4768716,5.77049 0.02802,-0.031 -0.107916,-0.74913 -0.302085,-1.59584 -0.626529,-2.73211 -0.8573126,-5.0136 -0.8494526,-8.39756 0.0075,-3.22264 0.1883526,-4.9531 0.7902546,-7.56084 1.796432,-7.78301 6.249536,-14.07389 12.300586,-17.37695 3.983315,-2.17435 5.696394,-2.56352 13.783878,-3.13138 5.565796,-0.3908 9.816962,0.38483 13.568938,2.47567 1.654301,0.92188 3.972853,2.49781 3.977095,2.70324 0.0016,0.0751 -0.110621,0.0873 -0.249282,0.0271 -0.918913,-0.39902 -2.892885,-0.63145 -5.366176,-0.63189 l -2.665083,-4.7e-4 -2.376969,0.68578 c -2.153544,0.62134 -2.539456,0.68618 -4.105666,0.68991 -1.478906,0.003 -2.228298,-0.10354 -5.186109,-0.74077 -5.770928,-1.24333 -7.472016,-1.17521 -9.626195,0.38552 -1.937704,1.40388 -3.43962,3.60988 -4.072592,5.98181 -0.314084,1.17696 -0.320321,3.35344 -0.01269,4.43096 l 0.218631,0.7658 -0.384473,0.16027 c -0.892559,0.37206 -1.951255,1.86835 -2.593665,3.6657 -0.896273,2.50763 -1.339143,5.4399 -1.37113,9.07833 -0.02107,2.39668 -0.02194,2.40263 -0.262958,1.79278 -0.504424,-1.27635 -0.85185,-3.71634 -0.938017,-6.58769 -0.131157,-4.37055 0.328486,-7.67043 1.531578,-10.9955 0.514892,-1.42305 0.04553,-0.65683 -0.578579,0.9445 -0.68001,1.74478 -1.208582,3.69621 -1.535455,5.66873 -0.323068,1.94955 -0.320064,6.1823 0.0058,8.12712 1.14155,6.8137 4.516307,12.56573 9.529487,16.2423 2.389827,1.75266 4.095646,2.56865 6.380841,3.0523 1.1607,0.24566 4.535145,0.29085 5.005979,0.067 0.190369,-0.0905 -0.157569,-0.14075 -1.025555,-0.14815 -0.72252,-0.007 -1.872331,-0.11897 -2.555139,-0.25069 -2.247322,-0.43351 -3.231353,-1.05168 -3.777179,-2.37283 -0.432385,-1.04657 -0.781435,-3.27616 -0.781435,-4.99151 v -1.3472 l 0.684279,0.55167 c 0.89597,0.72235 1.710244,1.16694 4.141269,2.26112 2.847174,1.28149 3.480529,1.65117 4.372486,2.55225 0.790752,0.79885 1.458167,2.05491 1.460892,2.74936 7.08e-4,0.19721 0.03009,0.35856 0.06514,0.35856 0.03505,0 0.958827,-0.34829 2.052832,-0.77397 3.63437,-1.41415 5.734915,-1.96732 8.260618,-2.17539 1.472212,-0.12128 4.302537,0.14367 6.189551,0.57942 2.520083,0.58193 2.301809,0.61269 2.906942,-0.40975 0.902718,-1.52525 1.200474,-2.74599 1.187727,-4.86937 -0.0095,-1.58259 -0.06274,-1.97953 -0.390269,-2.90988 -0.678038,-1.92594 -1.739865,-3.2659 -3.292447,-4.15486 -1.100816,-0.63028 -0.209714,-0.40724 1.109969,0.27782 2.819731,1.46376 4.423254,5.0537 3.953292,8.85058 -0.186705,1.50839 -0.590644,2.88135 -1.096504,3.72691 -0.44839,0.74951 -0.362984,1.39309 0.09846,0.74196 0.473741,-0.66848 1.413627,-2.89245 1.649536,-3.90316 0.122741,-0.52587 0.267326,-1.56566 0.321294,-2.31065 l 0.09814,-1.35453 0.09778,1.03581 c 0.202299,2.14298 -0.235883,4.55419 -1.183255,6.51115 l -0.567733,1.17276 0.522841,0.64017 c 0.287558,0.35209 0.712133,1.08764 0.943496,1.63455 l 0.420655,0.99437 1.630958,-0.0796 c 1.764078,-0.0862 3.317188,0.18472 4.465727,0.77875 0.345844,0.17887 0.442809,0.27239 0.232719,0.22445 -1.550807,-0.3539 -2.377122,-0.43508 -3.592315,-0.35288 -1.601002,0.10829 -2.458145,0.34412 -2.458145,0.67635 0,0.18742 0.120655,0.2095 0.612249,0.11202 1.308294,-0.25941 3.048577,-0.11902 4.35589,0.3514 3.383842,1.21764 5.441581,4.07273 5.385189,7.47191 l -0.01889,1.13854 -0.106815,-0.87646 c -0.383537,-3.14712 -2.658243,-5.57618 -5.902901,-6.30344 -1.299304,-0.29123 -2.37233,-0.23652 -3.748486,0.1911 l -0.792323,0.2462 -0.576227,1.36773 c -3.64463,8.65093 -12.717646,14.24989 -23.69488,14.62215 l -2.086095,0.0708 -0.313562,0.78595 c -0.710766,1.78153 -1.935844,3.37214 -3.239444,4.20603 -1.270871,0.81294 -3.284013,1.18393 -4.906729,0.90425 z M 68.40012,158.09077 c -0.129835,-0.0928 -0.147606,-0.15545 -0.04454,-0.15693 0.09436,-0.001 0.211637,0.0692 0.260607,0.15693 0.110534,0.19784 0.06067,0.19784 -0.21609,0 z"
       id="path3763"
       inkscape:connector-curvature="0" />
    <text
       xml:space="preserve"
       style="font-style:normal;font-weight:normal;font-size:113.59444427px;line-height:1.25;font-family:sans-serif;letter-spacing:0px;word-spacing:0px;fill:#000000;fill-opacity:1;stroke:none;stroke-width:0.26458332"
       x="70.517113"
       y="171.28262"
       id="text3809"><tspan
         sodipodi:role="line"
         id="tspan3807"
         x="70.517113"
         y="171.28262"
         style="font-size:50.79999924px;stroke-width:0.26458332">eleLab</tspan></text>
  </g>
</svg>
